<svg width="241" height="136" viewBox="0 0 241 136" fill="none" xmlns="http://www.w3.org/2000/svg">
<g clip-path="url(#clip0_40_373)">
<path d="M47.0102 136C47.0102 136 0 125.538 0 76.6958C0 33.6386 0 0 0 0H10.4475C10.4475 0 10.4475 33.6386 10.4475 76.6958C10.4475 125.54 47.0102 136 47.0102 136Z" fill="#0A0A0A"/>
<path d="M47.0125 102.491C49.1822 101.254 51.0023 100.186 53.0106 98.5519C59.6969 93.1175 62.6803 86.3768 62.6803 76.6978V0.00195312H73.1278C73.1278 0.00195312 73.1278 74.3297 73.1278 76.6978C73.1278 82.7607 69.7499 102.491 47.0125 102.491Z" fill="#0A0A0A"/>
<path d="M113.822 1.50391H117.643V1.5892C117.193 1.88999 116.527 2.27832 115.926 2.5993V10.7475C115.926 13.5847 114.53 15.5196 111.181 15.5196C107.852 15.5196 105.965 13.67 105.965 10.6599V2.27832C105.45 2.08528 104.871 1.82714 104.419 1.5892V1.50391H109.915V1.5892C109.507 1.82489 108.906 2.08303 108.413 2.27832V10.835C108.37 13.2637 109.552 14.9629 111.869 14.9629C114.209 14.9629 115.541 13.4141 115.541 10.7497V2.60155C114.94 2.27832 114.274 1.89223 113.824 1.59145V1.50391H113.822Z" fill="#0A0A0A"/>
<path d="M125.908 12.1465C126.035 13.1791 126.143 14.3396 126.208 15.307H117.814V15.0489L123.332 5.95573L120.411 5.97817L118.479 8.66504H118.372C118.244 7.67514 118.136 6.5573 118.092 5.58984H125.885V5.84798L120.304 14.9411L123.89 14.9187L125.8 12.1443L125.908 12.1465Z" fill="#0A0A0A"/>
<path d="M137.178 10.168C137.178 13.9099 134.923 15.5215 132.132 15.5215C131.188 15.5215 130.308 15.2634 129.319 14.5541L128.095 15.4564H127.988V0.556325H126.571V0.212891H130.263V6.74937C131.036 5.90986 132.13 5.37338 133.246 5.37338C135.483 5.37338 137.178 7.0075 137.178 10.168ZM134.667 10.7718C134.667 7.13769 133.724 6.15004 132.285 6.15004C131.576 6.15004 130.953 6.45083 130.33 7.16014V14.2982C130.781 14.8796 131.381 15.1803 131.984 15.1803C133.766 15.1781 134.667 13.7168 134.667 10.7718Z" fill="#0A0A0A"/>
<path d="M147.141 13.4359C146.41 14.6839 145.144 15.5212 143.319 15.5212C140.486 15.5212 138.639 13.5212 138.639 10.5335C138.639 7.13736 141.002 5.37305 143.254 5.37305C145.529 5.37305 147.096 7.15756 147.096 9.3506V9.73668H141.064C141.149 13.07 142.611 14.1879 144.586 14.1879C145.552 14.1879 146.325 13.8871 147.076 13.3708L147.141 13.4359ZM141.064 9.3506H144.756C144.756 6.72883 144.175 5.67383 143.059 5.67383C141.858 5.67608 141.087 6.85677 141.064 9.3506Z" fill="#0A0A0A"/>
<path d="M157.983 14.5964C158.456 14.8119 158.841 15.005 159.207 15.2205V15.3058H154.354V15.2205C154.697 15.005 155.062 14.8119 155.448 14.6189L152.828 10.2328L151.754 10.8344V14.5964C152.269 14.7895 152.635 14.9825 153.043 15.2205V15.3058H148.085V15.2205C148.515 14.9848 148.943 14.7895 149.436 14.5964V0.558278H148.085V0.214844H151.756V10.4281L152.937 9.80407L156.544 5.93426H154.977V5.59083H158.691V5.93426H157.017L154.462 8.66378L157.983 14.5964Z" fill="#0A0A0A"/>
<path d="M164.465 15.2208V15.3061H159.462V15.2208C159.913 14.9851 160.321 14.7898 160.814 14.5968V7.22302L159.462 6.55635V6.44861C160.536 6.04008 161.888 5.6742 163.154 5.43851V14.5968C163.649 14.792 164.037 14.9851 164.465 15.2208ZM160.516 1.89193C160.516 1.03222 161.116 0.408203 161.997 0.408203C162.878 0.408203 163.479 1.03222 163.479 1.89193C163.479 2.73144 162.878 3.35321 161.997 3.35321C161.116 3.35321 160.516 2.72919 160.516 1.89193Z" fill="#0A0A0A"/>
<path d="M172.837 12.6191C172.837 14.7471 170.883 15.5215 168.672 15.5215C167.384 15.5215 166.44 15.3284 165.366 14.7897L165.431 14.058H165.516C166.525 14.8324 167.406 15.1758 168.65 15.1758C170.046 15.1758 170.755 14.5518 170.755 13.5192C170.755 10.7448 165.624 11.499 165.624 8.20836C165.624 6.2308 167.449 5.37109 169.596 5.37109C170.735 5.37109 171.506 5.56414 172.622 6.08041L172.557 6.78972H172.472C171.483 6.03776 170.712 5.71453 169.596 5.71453C168.394 5.69208 167.706 6.2308 167.706 7.19825C167.706 9.84696 172.837 9.1803 172.837 12.6191Z" fill="#0A0A0A"/>
<path d="M180.438 14.2973C180.008 14.9639 179.171 15.5229 177.905 15.5229C176.188 15.5229 175.114 14.5981 175.114 12.7283V5.95609H173.655V5.82815L175.287 5.31187C175.868 4.40952 176.553 3.39942 177.327 2.32422H177.434V5.59246H180.355V5.95834H177.434V12.946C177.434 14.1289 178.035 14.7081 179.001 14.7081C179.474 14.7081 179.99 14.4926 180.31 14.1716L180.438 14.2973Z" fill="#0A0A0A"/>
<path d="M189.068 14.9623H190.442V15.3057H186.727V14.1879C186.042 14.9623 185.073 15.5212 183.787 15.5212C182.197 15.5212 181.146 14.639 181.146 13.2002C181.146 11.4157 182.8 10.2754 186.727 9.97462V8.3405C186.727 6.47069 186.104 5.67383 185.181 5.67383C184.838 5.67383 184.58 5.75913 184.28 5.95442L182.155 9.04981H182.027C181.899 8.01727 181.812 7.11491 181.747 6.08236C182.886 5.60874 184.13 5.37305 185.226 5.37305C187.996 5.37305 189.068 6.83433 189.068 8.81188V14.9623ZM186.727 13.6514V10.3181C184.387 10.5762 183.529 11.6514 183.529 13.0274C183.529 14.1677 184.087 14.7041 184.838 14.7041C185.461 14.7041 186.107 14.3607 186.727 13.6514Z" fill="#0A0A0A"/>
<path d="M200.876 14.5974C201.369 14.7904 201.777 14.9834 202.207 15.2214V15.3067H197.204V15.2214C197.634 14.9857 198.042 14.7904 198.535 14.5974V8.46941C198.535 7.00813 197.955 6.10353 196.646 6.10353C195.895 6.10353 195.272 6.40431 194.629 7.09343V14.5974C195.102 14.7904 195.487 14.9834 195.917 15.2214V15.3067H190.914V15.2214C191.365 14.9857 191.773 14.7904 192.289 14.5974V7.18097L190.914 6.5143V6.429C192.008 5.99803 193.297 5.63439 194.564 5.39646L194.391 6.90038C195.249 5.91049 196.473 5.35156 197.74 5.35156C199.822 5.35156 200.873 6.72754 200.873 8.64V14.5974H200.876Z" fill="#0A0A0A"/>
<path d="M116.012 37.3148C116.57 37.5303 117.02 37.7458 117.513 38.0241V38.1094H111.91V38.0241C112.403 37.766 112.876 37.5505 113.434 37.3148L112.125 33.7884H107.144L105.92 36.9916C106.564 37.3575 107.037 37.6583 107.575 38.0241V38.1094H103.753V38.0241C104.226 37.7009 104.804 37.3575 105.512 36.9916L110.45 24.1992H111.136L116.012 37.3148ZM107.294 33.4001H111.997L109.679 27.1442L107.294 33.4001Z" fill="#0A0A0A"/>
<path d="M125.392 28.3695C125.349 29.4874 125.242 30.6479 125.092 31.6378H124.984L123.202 29.0362C123.16 29.0138 123.052 28.9936 122.944 28.9936C122.536 28.9936 121.913 29.3796 121.42 29.961V37.3998C122.021 37.5929 122.536 37.7859 123.095 38.0239V38.1092H117.706V38.0239C118.157 37.7882 118.587 37.5929 119.08 37.3998V29.9835L117.728 29.3392V29.2539C118.822 28.823 120.111 28.4369 121.378 28.2214L121.227 29.6827C121.893 28.9083 122.817 28.1563 124.191 28.1563C124.576 28.1541 124.964 28.2192 125.392 28.3695Z" fill="#0A0A0A"/>
<path d="M132.67 37.1C132.24 37.7667 131.404 38.3256 130.137 38.3256C128.42 38.3256 127.347 37.4008 127.347 35.531V28.7588H125.887V28.6309L127.519 28.1146C128.1 27.2122 128.786 26.2021 129.559 25.127H129.666V28.3952H132.587V28.7611H129.666V35.7487C129.666 36.9317 130.267 37.5108 131.233 37.5108C131.706 37.5108 132.222 37.2953 132.542 36.9743L132.67 37.1Z" fill="#0A0A0A"/>
<path d="M147.098 37.3767C146.625 38.0433 146.025 38.3217 145.231 38.3217C144.2 38.3217 143.449 37.8279 143.277 36.8806C142.591 37.6977 141.58 38.3217 140.251 38.3217C138.661 38.3217 137.61 37.4395 137.61 36.0007C137.61 34.2162 139.264 33.0759 143.191 32.7751V31.1432C143.191 29.2734 142.568 28.4766 141.645 28.4766C141.302 28.4766 141.044 28.5619 140.744 28.7571L138.619 31.8526H138.491C138.363 30.82 138.276 29.9176 138.211 28.8851C139.35 28.4115 140.594 28.1758 141.69 28.1758C144.46 28.1758 145.532 29.6371 145.532 31.6146V36.4519C145.532 37.1836 145.875 37.4844 146.325 37.4844C146.54 37.4844 146.798 37.4193 147.056 37.3116L147.098 37.3767ZM143.189 36.4519V33.1185C140.849 33.3767 139.991 34.4519 139.991 35.8279C139.991 36.9681 140.549 37.5046 141.3 37.5046C141.923 37.5069 142.568 37.1634 143.189 36.4519Z" fill="#0A0A0A"/>
<path d="M157.402 37.4001C157.895 37.5931 158.303 37.7862 158.734 38.0241V38.1094H153.731V38.0241C154.161 37.7884 154.569 37.5931 155.062 37.4001V31.2721C155.062 29.8109 154.482 28.9063 153.173 28.9063C152.422 28.9063 151.799 29.207 151.155 29.8962V37.4001C151.628 37.5931 152.014 37.7862 152.444 38.0241V38.1094H147.441V38.0241C147.892 37.7884 148.3 37.5931 148.815 37.4001V29.9837L147.441 29.317V29.2317C148.535 28.8008 149.824 28.4371 151.09 28.1992L150.918 29.7031C151.776 28.7132 153 28.1543 154.267 28.1543C156.349 28.1543 157.4 29.5303 157.4 31.4427V37.4001H157.402Z" fill="#0A0A0A"/>
<path d="M170.262 37.7653V38.1088H166.505V37.0134C165.689 37.8529 164.701 38.3243 163.542 38.3243C161.394 38.3243 159.655 36.6677 159.655 33.5072C159.655 29.8304 161.93 28.1761 164.636 28.1761C165.321 28.1761 165.882 28.2839 166.503 28.542V24.7148L165.129 24.1335V24.0257C166.202 23.6172 167.576 23.2513 168.843 23.0156V37.7653H170.262ZM166.505 36.5398V29.3815C165.969 28.7799 165.411 28.5218 164.701 28.5218C163.091 28.5218 162.145 29.9202 162.145 33.1436C162.145 36.3894 163.111 37.5723 164.508 37.5723C165.281 37.5723 165.882 37.2491 166.505 36.5398Z" fill="#0A0A0A"/>
<path d="M186.707 33.6156C186.815 35.0994 186.857 36.3452 186.857 37.2498C185.806 37.894 184.067 38.325 182.478 38.325C178.441 38.325 175.78 35.4226 175.78 31.2093C175.78 26.931 178.486 24.0938 182.543 24.0938C183.982 24.0938 185.506 24.3743 186.707 24.8682C186.707 25.9007 186.642 27.3193 186.557 28.8031H186.407L184.044 24.9333C183.636 24.6527 183.056 24.4821 182.498 24.4821C179.877 24.4821 178.611 26.7178 178.611 31.1689C178.611 35.683 179.9 37.9411 182.433 37.9411C183.056 37.9411 183.764 37.7481 184.15 37.4675L186.555 33.6201H186.707V33.6156Z" fill="#0A0A0A"/>
<path d="M199.181 37.4193C198.688 38.0433 198.042 38.3217 197.249 38.3217C196.24 38.3217 195.509 37.7852 195.339 36.8604C194.546 37.8054 193.472 38.3217 192.268 38.3217C190.271 38.3217 189.177 37.0534 189.177 35.1612V30.0007L187.888 29.4193V29.2914C188.982 28.8828 190.251 28.5169 191.517 28.2812V35.2891C191.517 36.5349 191.948 37.5472 193.277 37.5472C193.92 37.5472 194.586 37.2465 195.252 36.4945V30.0029L193.963 29.4215V29.2936C195.057 28.8851 196.346 28.5192 197.592 28.2835V36.4541C197.592 37.1859 197.915 37.4642 198.385 37.4642C198.6 37.4642 198.836 37.3991 199.116 37.2914L199.181 37.4193Z" fill="#0A0A0A"/>
<path d="M204.677 38.0251V38.1104H199.654V38.0251C200.104 37.7894 200.512 37.5942 201.006 37.4011V24.7816L199.654 24.1374V24.0296C200.728 23.6211 202.059 23.2552 203.346 23.0195V37.4034C203.839 37.5942 204.247 37.7872 204.677 38.0251Z" fill="#0A0A0A"/>
<path d="M211.998 37.1C211.567 37.7667 210.731 38.3256 209.465 38.3256C207.748 38.3256 206.674 37.4008 206.674 35.531V28.7588H205.215V28.6309L206.847 28.1146C207.427 27.2122 208.113 26.2021 208.887 25.127H208.994V28.3952H211.915V28.7611H208.994V35.7487C208.994 36.9317 209.595 37.5108 210.561 37.5108C211.034 37.5108 211.549 37.2953 211.87 36.9743L211.998 37.1Z" fill="#0A0A0A"/>
<path d="M223.31 37.7666V38.1101H219.596V36.9698C218.803 37.8519 217.772 38.3233 216.613 38.3233C214.616 38.3233 213.522 37.0124 213.522 35.1202V30.0046L212.233 29.4232V29.2953C213.327 28.8867 214.596 28.5208 215.862 28.2852V35.293C215.862 36.5388 216.292 37.5511 217.622 37.5511C218.265 37.5511 218.931 37.2504 219.596 36.4984V30.0068L218.307 29.4254V29.2975C219.401 28.889 220.69 28.5231 221.936 28.2874V37.7689L223.31 37.7666Z" fill="#0A0A0A"/>
<path d="M231.662 28.3695C231.619 29.4874 231.512 30.6479 231.362 31.6378H231.254L229.472 29.0362C229.43 29.0138 229.322 28.9936 229.214 28.9936C228.806 28.9936 228.183 29.3796 227.69 29.961V37.7657H229.344V38.1092H223.978V37.7657H225.352V29.9835L224.001 29.3392V29.2539C225.095 28.823 226.383 28.4369 227.63 28.2214L227.479 29.6827C228.165 28.9083 229.069 28.1563 230.463 28.1563C230.846 28.1541 231.232 28.2192 231.662 28.3695Z" fill="#0A0A0A"/>
<path d="M241 36.2386C240.269 37.4867 239.003 38.3239 237.178 38.3239C234.345 38.3239 232.498 36.3239 232.498 33.3363C232.498 29.9401 234.861 28.1758 237.113 28.1758C239.388 28.1758 240.955 29.9603 240.955 32.1533V32.5394H234.923C235.009 35.8728 236.47 36.9906 238.445 36.9906C239.411 36.9906 240.184 36.6898 240.935 36.1735L241 36.2386ZM234.926 32.1533H238.617C238.617 29.5316 238.037 28.4766 236.921 28.4766C235.719 28.4766 234.946 29.6595 234.926 32.1533Z" fill="#0A0A0A"/>
<path d="M118.029 53.9466C118.029 58.8916 114.315 60.9118 111.009 60.9118H104.719V60.8266C105.149 60.5909 105.707 60.3327 106.221 60.1374V47.8838C105.705 47.6907 105.127 47.4326 104.674 47.1947V47.1094H110.944C114.25 47.1094 118.029 49.1745 118.029 53.9466ZM115.301 54.0544C115.301 49.1318 112.938 47.4977 110.686 47.4977H108.668V60.097C109.462 60.4405 110 60.528 110.901 60.528C113.671 60.5258 115.301 58.4405 115.301 54.0544Z" fill="#0A0A0A"/>
<path d="M127.925 59.0414C127.194 60.2894 125.928 61.1267 124.103 61.1267C121.27 61.1267 119.423 59.1267 119.423 56.139C119.423 52.7428 121.785 50.9785 124.038 50.9785C126.313 50.9785 127.88 52.763 127.88 54.9561V55.3422H121.848C121.933 58.6755 123.395 59.7933 125.37 59.7933C126.336 59.7933 127.109 59.4925 127.86 58.9763L127.925 59.0414ZM121.85 54.9561H125.542C125.542 52.3343 124.962 51.2793 123.845 51.2793C122.644 51.2793 121.871 52.4622 121.85 54.9561Z" fill="#0A0A0A"/>
<path d="M135.633 51.1937H138.897V51.2789C138.489 51.6224 137.888 52.0736 137.395 52.3743L133.896 61.0163H133.273L129.173 51.8581C128.808 51.665 128.487 51.4922 128.207 51.2767V51.1914H133.143V51.2767C132.67 51.5348 132.262 51.7279 131.726 51.9434L134.497 58.4798L136.965 52.3743C136.449 52.0085 136.064 51.665 135.633 51.2789V51.1937Z" fill="#0A0A0A"/>
<path d="M147.334 59.0414C146.603 60.2894 145.337 61.1267 143.512 61.1267C140.679 61.1267 138.832 59.1267 138.832 56.139C138.832 52.7428 141.194 50.9785 143.447 50.9785C145.722 50.9785 147.289 52.763 147.289 54.9561V55.3422H141.257C141.342 58.6755 142.804 59.7933 144.778 59.7933C145.744 59.7933 146.518 59.4925 147.269 58.9763L147.334 59.0414ZM141.257 54.9561H144.949C144.949 52.3343 144.368 51.2793 143.252 51.2793C142.053 51.2793 141.279 52.4622 141.257 54.9561Z" fill="#0A0A0A"/>
<path d="M153.323 60.8259V60.9112H148.3V60.8259C148.75 60.5902 149.158 60.3949 149.651 60.2019V47.5824L148.3 46.9382V46.8304C149.373 46.4219 150.705 46.056 151.991 45.8203V60.2041C152.487 60.3949 152.895 60.5902 153.323 60.8259Z" fill="#0A0A0A"/>
<path d="M154.289 56.0534C154.289 53.086 156.349 50.9805 159.204 50.9805C162.06 50.9805 164.12 53.0882 164.12 56.0534C164.12 59.0411 162.06 61.1264 159.204 61.1264C156.349 61.1264 154.289 59.0411 154.289 56.0534ZM161.567 56.0534C161.567 52.7852 160.816 51.3015 159.204 51.3015C157.593 51.3015 156.842 52.7852 156.842 56.0534C156.842 59.3419 157.593 60.8054 159.204 60.8054C160.816 60.8054 161.567 59.3217 161.567 56.0534Z" fill="#0A0A0A"/>
<path d="M175.63 55.8155C175.63 59.4698 173.418 61.1264 170.564 61.1264C169.963 61.1264 169.383 61.0411 168.76 60.8256V64.9109H170.499V65.2543H165.068V64.9109H166.442V52.7852L165.068 52.141V52.0557C166.162 51.6247 167.451 51.2386 168.717 51.0231L168.545 52.4844C169.361 51.5394 170.369 50.9805 171.723 50.9805C173.933 50.9782 175.63 52.655 175.63 55.8155ZM173.14 56.3744C173.14 52.7403 172.174 51.7526 170.714 51.7526C170.006 51.7526 169.383 52.0534 168.76 52.7425V59.8806C169.233 60.5248 169.833 60.7829 170.434 60.7829C172.216 60.7829 173.14 59.3217 173.14 56.3744Z" fill="#0A0A0A"/>
<path d="M192.461 60.2028C192.977 60.3959 193.362 60.5889 193.813 60.8268V60.9121H188.81V60.8268C189.24 60.5912 189.648 60.3959 190.119 60.2028V54.012C190.119 52.6585 189.583 51.7112 188.379 51.7112C187.736 51.7112 187.133 52.012 186.425 52.6787V60.2028C186.918 60.3959 187.326 60.5889 187.776 60.8268V60.9121H182.774V60.8268C183.204 60.5912 183.612 60.3959 184.083 60.2028V53.7314C184.083 52.4408 183.567 51.7112 182.323 51.7112C181.657 51.7112 181.014 52.0547 180.391 52.7213V60.2028C180.884 60.3959 181.272 60.5889 181.7 60.8268V60.9121H176.697V60.8268C177.127 60.5912 177.555 60.3959 178.049 60.2028V51.5384H176.697V51.195H180.389V52.2477C181.182 51.4958 182.278 50.957 183.459 50.957C184.791 50.957 185.714 51.5586 186.165 52.5059C187.174 51.4531 188.247 50.957 189.599 50.957C191.338 50.957 192.454 52.2904 192.454 54.1602V60.2028H192.461Z" fill="#0A0A0A"/>
<path d="M203.195 59.0414C202.465 60.2894 201.198 61.1267 199.374 61.1267C196.541 61.1267 194.694 59.1267 194.694 56.139C194.694 52.7428 197.056 50.9785 199.309 50.9785C201.584 50.9785 203.151 52.763 203.151 54.9561V55.3422H197.119C197.204 58.6755 198.665 59.7933 200.64 59.7933C201.606 59.7933 202.38 59.4925 203.13 58.9763L203.195 59.0414ZM197.119 54.9561H200.811C200.811 52.3343 200.23 51.2793 199.114 51.2793C197.915 51.2793 197.141 52.4622 197.119 54.9561Z" fill="#0A0A0A"/>
<path d="M214.188 60.5687H215.497V60.9121H210.494V60.5687H211.845V54.0749C211.845 52.6136 211.265 51.709 209.956 51.709C209.205 51.709 208.582 52.0098 207.938 52.6989V60.5687H209.227V60.9121H204.247V60.5687H205.598V51.5384H204.247V51.195H207.938V52.2477C208.777 51.4307 209.893 50.957 211.052 50.957C213.134 50.957 214.185 52.333 214.185 54.2455V60.5687H214.188Z" fill="#0A0A0A"/>
<path d="M222.71 59.9008C222.279 60.5675 221.443 61.1264 220.177 61.1264C218.46 61.1264 217.386 60.2016 217.386 58.3318V51.5596H215.927V51.4317L217.559 50.9154C218.139 50.013 218.825 49.0029 219.599 47.9277H219.706V51.196H222.627V51.5619H219.706V58.5495C219.706 59.7324 220.307 60.3116 221.273 60.3116C221.746 60.3116 222.261 60.0961 222.582 59.7751L222.71 59.9008Z" fill="#0A0A0A"/>
<path d="M114.85 74.3835H114.723L112.232 70.2982H108.668V76.8549H110.966C111.374 76.0378 111.867 75.1781 112.34 74.4261H112.49V79.6495H112.34C111.867 78.9177 111.374 78.058 110.966 77.2208H108.668V82.9402C109.249 83.1332 109.915 83.3913 110.45 83.6293V83.7146H104.676V83.6293C105.127 83.3936 105.707 83.1355 106.223 82.9402V70.6865C105.707 70.4935 105.129 70.2353 104.676 69.9974V69.9121H115.003C115.001 71.223 114.958 72.9851 114.85 74.3835Z" fill="#0A0A0A"/>
<path d="M115.238 78.8542C115.238 75.8867 117.298 73.7812 120.154 73.7812C123.009 73.7812 125.069 75.889 125.069 78.8542C125.069 81.8419 123.009 83.9271 120.154 83.9271C117.298 83.9271 115.238 81.8441 115.238 78.8542ZM122.516 78.8542C122.516 75.586 121.765 74.1022 120.154 74.1022C118.544 74.1022 117.791 75.586 117.791 78.8542C117.791 82.1426 118.542 83.6062 120.154 83.6062C121.765 83.6062 122.516 82.1224 122.516 78.8542Z" fill="#0A0A0A"/>
<path d="M137.243 83.0248C136.749 83.6488 136.104 83.9271 135.31 83.9271C134.302 83.9271 133.571 83.3906 133.401 82.4658C132.607 83.4108 131.534 83.9271 130.33 83.9271C128.333 83.9271 127.239 82.6589 127.239 80.7666V75.6061L125.95 75.0248V74.8968C127.044 74.4883 128.313 74.1224 129.579 73.8867V80.8946C129.579 82.1404 130.009 83.1527 131.339 83.1527C131.982 83.1527 132.648 82.8519 133.313 82.1V75.6084L132.024 75.027V74.8991C133.118 74.4905 134.407 74.1246 135.653 73.889V82.0596C135.653 82.7913 135.976 83.0697 136.447 83.0697C136.662 83.0697 136.897 83.0046 137.178 82.8968L137.243 83.0248Z" fill="#0A0A0A"/>
<path d="M147.742 83.3714H149.051V83.7149H144.048V83.3714H145.399V76.8776C145.399 75.4163 144.819 74.5117 143.51 74.5117C142.759 74.5117 142.136 74.8125 141.492 75.5016V83.3714H142.781V83.7149H137.778V83.3714H139.152V75.5892L137.778 74.9225V74.8372C138.872 74.4062 140.161 74.0426 141.427 73.8047L141.255 75.3086C142.113 74.3187 143.337 73.7598 144.604 73.7598C146.686 73.7598 147.737 75.1357 147.737 77.0482V83.3714H147.742Z" fill="#0A0A0A"/>
<path d="M160.623 82.9174V83.0251L158.306 83.9701C157.512 83.712 157.039 83.1755 156.867 82.5515C156.028 83.4337 155.02 83.9275 153.841 83.9275C151.693 83.9275 149.954 82.2709 149.954 79.1104C149.954 75.4337 152.229 73.7793 154.935 73.7793C155.643 73.7793 156.201 73.8871 156.824 74.1452V70.3405L155.428 69.7389V69.6312C156.501 69.2227 157.875 68.8568 159.142 68.6211V82.6593L160.623 82.9174ZM156.822 82.1228V75.0072C156.264 74.4056 155.728 74.125 154.997 74.125C153.388 74.125 152.442 75.5235 152.442 78.7468C152.442 81.9926 153.408 83.1755 154.805 83.1755C155.578 83.1755 156.201 82.8321 156.822 82.1228Z" fill="#0A0A0A"/>
<path d="M169.381 83.3705H170.755V83.7139H167.041V82.5961C166.355 83.3705 165.386 83.9294 164.1 83.9294C162.511 83.9294 161.459 83.0472 161.459 81.6084C161.459 79.8239 163.114 78.6836 167.041 78.3828V76.7487C167.041 74.8789 166.418 74.082 165.494 74.082C165.151 74.082 164.893 74.1673 164.593 74.3626L162.468 77.458H162.34C162.213 76.4255 162.125 75.5231 162.06 74.4906C163.199 74.0169 164.443 73.7812 165.539 73.7812C168.309 73.7812 169.381 75.2425 169.381 77.2201V83.3705ZM167.041 82.0573V78.724C164.701 78.9821 163.842 80.0573 163.842 81.4333C163.842 82.5736 164.4 83.1101 165.151 83.1101C165.774 83.1123 166.42 82.7667 167.041 82.0573Z" fill="#0A0A0A"/>
<path d="M177.797 82.7035C177.367 83.3702 176.531 83.9291 175.265 83.9291C173.548 83.9291 172.474 83.0043 172.474 81.1345V74.3623H171.015V74.2344L172.647 73.7181C173.227 72.8158 173.913 71.8057 174.686 70.7305H174.794V73.9987H177.714V74.3646H174.794V81.3522C174.794 82.5352 175.395 83.1143 176.361 83.1143C176.834 83.1143 177.349 82.8988 177.67 82.5778L177.797 82.7035Z" fill="#0A0A0A"/>
<path d="M183.251 83.6293V83.7146H178.248V83.6293C178.678 83.3936 179.106 83.1983 179.6 83.0052V74.3408H178.291V73.9974H181.94V83.0052C182.435 83.1983 182.821 83.3913 183.251 83.6293ZM179.301 70.2982C179.301 69.4385 179.902 68.8145 180.761 68.8145C181.642 68.8145 182.242 69.4385 182.242 70.2982C182.242 71.1377 181.642 71.7595 180.761 71.7595C179.902 71.7617 179.301 71.1377 179.301 70.2982Z" fill="#0A0A0A"/>
<path d="M184.302 78.8542C184.302 75.8867 186.362 73.7812 189.218 73.7812C192.073 73.7812 194.133 75.889 194.133 78.8542C194.133 81.8419 192.073 83.9271 189.218 83.9271C186.362 83.9271 184.302 81.8441 184.302 78.8542ZM191.58 78.8542C191.58 75.586 190.829 74.1022 189.218 74.1022C187.608 74.1022 186.855 75.586 186.855 78.8542C186.855 82.1426 187.606 83.6062 189.218 83.6062C190.829 83.6062 191.58 82.1224 191.58 78.8542Z" fill="#0A0A0A"/>
<path d="M205.148 83.0056C205.641 83.1986 206.049 83.3916 206.479 83.6296V83.7149H201.476V83.6296C201.907 83.3939 202.315 83.1986 202.808 83.0056V76.8776C202.808 75.4163 202.227 74.5117 200.918 74.5117C200.167 74.5117 199.544 74.8125 198.901 75.5016V83.0056C199.374 83.1986 199.759 83.3916 200.19 83.6296V83.7149H195.187V83.6296C195.637 83.3939 196.045 83.1986 196.561 83.0056V75.5892L195.187 74.9225V74.8372C196.281 74.4062 197.569 74.0426 198.836 73.8047L198.663 75.3086C199.522 74.3187 200.746 73.7598 202.012 73.7598C204.094 73.7598 205.146 75.1357 205.146 77.0482V83.0056H205.148Z" fill="#0A0A0A"/>
</g>
<defs>
<clipPath id="clip0_40_373">
<rect width="241" height="136" fill="white"/>
</clipPath>
</defs>
</svg>
