<svg viewBox="0 0 155 65" xmlns="http://www.w3.org/2000/svg" xmlns:xlink="http://www.w3.org/1999/xlink" width="155.000000" height="65.000000" fill="none">
	<rect id="ARAL" width="155.000000" height="65.000000" x="0.000000" y="0.000000" fill="rgb(255,255,255)" fill-opacity="0" />
	<path id="Vector" d="M0 63.4291L4.61302 59.0744L27.2538 1.304L33.9582 1.304L56.8596 58.8075L61.5635 63.4231L61.5635 64.1206L43.5358 64.1206L43.4509 63.4231L46.4091 59.0683L41.5354 46.4346L16.3729 46.4346L11.5841 59.1532L14.4574 63.4231L14.3725 64.1206L0 64.1206L0 63.4231L0 63.4291ZM39.3592 40.7759L28.7329 13.4161L18.4582 40.7759L39.3592 40.7759Z" fill="rgb(0,0,0)" fill-rule="nonzero" />
	<path id="Vector" d="M64.7884 63.4291L67.8375 59.3352L67.8375 25.7889L64.7884 21.3432L64.7884 20.6457L76.8029 18.4683L76.8029 28.1422C77.9607 25.0065 79.6338 22.538 81.8099 20.7367C83.9861 18.9353 86.4957 18.0377 89.3447 18.0377C90.6238 18.0377 91.6361 18.1529 92.3938 18.3834L91.7816 27.1839C90.5025 26.7775 89.1992 26.5713 87.8657 26.5713C84.9075 26.5713 82.4949 27.5721 80.64 29.5796C78.779 31.5811 77.5061 34.0072 76.809 36.8578L76.809 59.2503L80.9007 63.4352L80.9007 64.1327L64.7884 64.1327L64.7884 63.4352L64.7884 63.4291Z" fill="rgb(0,0,0)" fill-rule="nonzero" />
	<path id="Vector" d="M97.9646 61.646C95.352 59.4079 94.0487 56.4603 94.0487 52.803C94.0487 45.4824 99.3043 40.7819 109.809 38.6895L122.697 36.1603L122.697 32.503C122.697 29.428 121.854 27.0141 120.169 25.2734C118.484 23.5327 116.277 22.6593 113.549 22.6593C110.591 22.6593 108.197 23.6176 106.366 25.5342C104.536 27.4508 103.62 30.2104 103.62 33.8131L94.8246 31.8116C95.4065 27.8026 97.3766 24.5092 100.747 21.9254C104.111 19.3417 108.409 18.0498 113.634 18.0498C119.205 18.0498 123.606 19.4873 126.825 22.3621C130.05 25.237 131.656 29.2582 131.656 34.4317L131.656 59.0016L134.705 63.4473L134.705 64.1448L122.691 64.1448L122.691 56.3875C121.296 59.1168 119.369 61.2396 116.902 62.7498C114.435 64.2601 111.573 65.0182 108.324 65.0182C104.026 65.0182 100.571 63.9022 97.9646 61.6642L97.9646 61.646ZM105.408 57.0668C106.827 58.4011 108.73 59.0683 111.113 59.0683C114.016 59.0683 116.465 58.1828 118.472 56.4118C120.472 54.6408 121.878 52.3603 122.697 49.5703L122.697 40.4241L112.858 42.4256C106.469 43.9965 103.281 47.1625 103.281 51.9236C103.281 54.016 103.99 55.7264 105.415 57.0668L105.408 57.0668Z" fill="rgb(0,0,0)" fill-rule="nonzero" />
	<path id="Vector" d="M155 63.4291L155 64.1266L139.936 64.1266L139.936 63.4291L142.986 59.3352L142.986 7.32061L139.936 2.87487L139.936 2.17738L151.951 0L151.951 59.3352L155 63.4291Z" fill="rgb(0,0,0)" fill-rule="nonzero" />
</svg>
