<svg width="682" height="120" viewBox="0 0 682 120" fill="none" xmlns="http://www.w3.org/2000/svg">
<g clip-path="url(#clip0_118_806)">
<path d="M0 43.9121L3.09519 40.8972L18.2864 0.902344H22.7848L38.151 40.7125L41.3072 43.9079V44.3907H29.2111L29.1542 43.9079L31.139 40.893L27.8689 32.1466H10.9857L7.77255 40.9518L9.70043 43.9079L9.64349 44.3907H0V43.9079V43.9121ZM26.4088 28.229L19.2788 9.28762L12.3848 28.229H26.4088Z" fill="black"/>
<path d="M43.4709 43.9131L45.5168 41.0788V17.8545L43.4709 14.7767V14.2938L51.5323 12.7864V19.4837C52.3091 17.3129 53.4317 15.6039 54.8918 14.3568C56.352 13.1097 58.0358 12.4883 59.9474 12.4883C60.8056 12.4883 61.4849 12.5681 61.9933 12.7276L61.5825 18.8203C60.7243 18.5389 59.8498 18.3962 58.955 18.3962C56.9702 18.3962 55.3514 19.089 54.1068 20.4789C52.8582 21.8645 52.0041 23.5441 51.5363 25.5176V41.0201L54.2817 43.9173V44.4002H43.4709V43.9173V43.9131Z" fill="black"/>
<path d="M65.7311 42.678C63.9781 41.1286 63.1036 39.088 63.1036 36.556C63.1036 31.4879 66.63 28.2337 73.6785 26.7851L82.3255 25.0341V22.5022C82.3255 20.3733 81.7602 18.7021 80.6295 17.497C79.4988 16.2919 78.0183 15.6873 76.188 15.6873C74.2032 15.6873 72.5966 16.3507 71.3683 17.6776C70.14 19.0044 69.5259 20.915 69.5259 23.4091L63.6242 22.0235C64.0147 19.248 65.3366 16.968 67.598 15.1792C69.8553 13.3905 72.739 12.4961 76.245 12.4961C79.9828 12.4961 82.9356 13.4912 85.0954 15.4815C87.2591 17.4718 88.337 20.2557 88.337 23.8374V40.8473L90.3828 43.9251V44.408H82.3215V39.0376C81.386 40.9271 80.0926 42.3967 78.4372 43.4423C76.7819 44.4878 74.8621 45.0127 72.6821 45.0127C69.7984 45.0127 67.48 44.24 65.7311 42.6906V42.678ZM70.7257 39.5078C71.6774 40.4316 72.9546 40.8935 74.553 40.8935C76.5012 40.8935 78.1444 40.2805 79.4907 39.0544C80.8329 37.8283 81.7765 36.2495 82.3255 34.318V27.986L75.7244 29.3716C71.4375 30.4591 69.2981 32.651 69.2981 35.9472C69.2981 37.3958 69.774 38.5799 70.7298 39.5078H70.7257Z" fill="black"/>
<path d="M104 43.9125V44.3954H93.8928V43.9125L95.9387 41.0782V5.06812L93.8928 1.9903V1.50742L101.954 0V41.0782L104 43.9125Z" fill="black"/>
</g>
<rect x="336" y="56" width="22" height="22" fill="black"/>
<g clip-path="url(#clip1_118_806)">
<path d="M521.327 118.81C519.451 118.015 517.987 116.94 516.936 115.578C515.881 114.219 515.238 112.725 515.004 111.098L520.217 109.34H520.451C520.764 111.228 521.573 112.695 522.883 113.731C524.192 114.771 525.858 115.29 527.889 115.29C529.567 115.29 530.916 114.902 531.932 114.127C532.947 113.351 533.455 112.322 533.455 111.036C533.455 109.071 532.106 107.75 529.412 107.067L523.613 105.762C521.347 105.232 519.515 104.403 518.106 103.267C516.698 102.13 515.996 100.376 515.996 97.996C515.996 96.4106 516.464 94.9634 517.4 93.6582C518.336 92.353 519.645 91.3242 521.324 90.568C523.002 89.8117 524.898 89.4355 527.004 89.4355C530.127 89.4355 532.717 90.1457 534.764 91.5622C536.815 92.9787 538.112 94.8405 538.66 97.1438L533.388 98.6755H533.153C532.88 97.163 532.186 95.9845 531.075 95.1323C529.964 94.2801 528.603 93.8578 527.004 93.8578C525.406 93.8578 524.243 94.2263 523.283 94.9634C522.327 95.7004 521.847 96.5795 521.847 97.6006C521.847 98.5066 522.18 99.2359 522.843 99.781C523.505 100.33 524.446 100.756 525.656 101.056L530.868 102.303C533.602 102.944 535.7 103.873 537.164 105.079C538.628 106.288 539.362 108.253 539.362 110.975C539.362 112.675 538.874 114.207 537.898 115.566C536.922 116.925 535.566 118.004 533.828 118.798C532.09 119.593 530.107 119.988 527.881 119.988C525.382 119.988 523.196 119.593 521.32 118.798L521.327 118.81Z" fill="black"/>
<path d="M549.911 118.073C547.645 116.791 545.888 114.983 544.638 112.66C543.389 110.338 542.766 107.681 542.766 104.695C542.766 101.708 543.389 99.0634 544.638 96.7601C545.888 94.4569 547.645 92.6603 549.911 91.3743C552.176 90.0883 554.774 89.4473 557.702 89.4473C561.177 89.4473 564.117 90.3263 566.517 92.0845C568.917 93.8427 570.373 96.2112 570.881 99.1977L565.494 100.161H565.259C564.906 98.4223 564.049 97.0058 562.681 95.9118C561.312 94.8177 559.674 94.2688 557.762 94.2688C555.028 94.2688 552.823 95.2246 551.14 97.1325C549.462 99.0404 548.621 101.562 548.621 104.699C548.621 107.835 549.462 110.365 551.14 112.296C552.819 114.223 555.024 115.186 557.762 115.186C559.793 115.186 561.491 114.63 562.859 113.513C564.224 112.399 565.105 110.822 565.494 108.779L571.115 109.8C570.488 112.975 568.977 115.47 566.577 117.282C564.176 119.094 561.217 120.004 557.702 120.004C554.774 120.004 552.176 119.363 549.911 118.077V118.073Z" fill="black"/>
<path d="M575.86 78H581.481V94.3225C582.536 92.8868 583.881 91.7159 585.524 90.81C587.162 89.904 588.959 89.4511 590.911 89.4511C594.267 89.4511 597.004 90.3877 599.111 92.2572C601.221 94.1267 602.273 96.6488 602.273 99.8234V119.436H596.592V101.071C596.592 98.9559 595.985 97.2937 594.775 96.0845C593.565 94.8752 591.883 94.2726 589.737 94.2726C587.785 94.2726 586.047 94.9827 584.524 96.3992C583 97.8157 581.985 99.5662 581.477 101.643V119.44H575.856V78H575.86Z" fill="black"/>
<path d="M614.464 118.015C612.159 116.695 610.362 114.871 609.076 112.545C607.787 110.223 607.144 107.605 607.144 104.695C607.144 101.785 607.787 99.2246 609.076 96.9022C610.366 94.5797 612.163 92.7563 614.464 91.4319C616.769 90.1114 619.363 89.4473 622.255 89.4473C625.147 89.4473 627.694 90.1075 630.015 91.4319C632.34 92.7563 634.153 94.5759 635.462 96.9022C636.771 99.2246 637.425 101.823 637.425 104.695C637.425 107.566 636.771 110.173 635.462 112.518C634.153 114.86 632.336 116.695 630.015 118.015C627.69 119.34 625.104 120 622.255 120C619.407 120 616.769 119.34 614.464 118.015ZM627.055 113.823C628.46 112.918 629.563 111.67 630.364 110.081C631.165 108.495 631.566 106.699 631.566 104.695C631.566 102.691 631.165 100.898 630.364 99.3091C629.563 97.7237 628.452 96.4837 627.024 95.597C625.599 94.7102 624.009 94.2649 622.251 94.2649C620.494 94.2649 618.855 94.7102 617.447 95.597C616.043 96.4837 614.948 97.7237 614.166 99.3091C613.385 100.894 612.996 102.691 612.996 104.695C612.996 106.699 613.385 108.491 614.166 110.081C614.948 111.666 616.039 112.914 617.447 113.823C618.851 114.729 620.454 115.182 622.251 115.182C624.048 115.182 625.647 114.729 627.055 113.823Z" fill="black"/>
<path d="M648.26 118.015C645.955 116.695 644.158 114.871 642.872 112.545C641.583 110.223 640.94 107.605 640.94 104.695C640.94 101.785 641.583 99.2246 642.872 96.9022C644.162 94.5797 645.959 92.7563 648.26 91.4319C650.565 90.1114 653.159 89.4473 656.051 89.4473C658.943 89.4473 661.49 90.1075 663.811 91.4319C666.136 92.7563 667.948 94.5759 669.258 96.9022C670.567 99.2246 671.221 101.823 671.221 104.695C671.221 107.566 670.567 110.173 669.258 112.518C667.948 114.86 666.132 116.695 663.811 118.015C661.486 119.34 658.899 120 656.051 120C653.203 120 650.565 119.34 648.26 118.015ZM660.855 113.823C662.26 112.918 663.362 111.67 664.164 110.081C664.965 108.495 665.366 106.699 665.366 104.695C665.366 102.691 664.965 100.898 664.164 99.3091C663.362 97.7237 662.252 96.4837 660.824 95.597C659.399 94.7102 657.809 94.2649 656.051 94.2649C654.294 94.2649 652.655 94.7102 651.247 95.597C649.843 96.4837 648.748 97.7237 647.966 99.3091C647.185 100.894 646.796 102.691 646.796 104.695C646.796 106.699 647.185 108.491 647.966 110.081C648.748 111.666 649.839 112.914 651.247 113.823C652.651 114.729 654.254 115.182 656.051 115.182C657.848 115.182 659.447 114.729 660.855 113.823Z" fill="black"/>
<path d="M676.379 119.432V78H682V119.432H676.379Z" fill="black"/>
</g>
<defs>
<clipPath id="clip0_118_806">
<rect width="104" height="45" fill="white"/>
</clipPath>
<clipPath id="clip1_118_806">
<rect width="167" height="42" fill="white" transform="translate(515 78)"/>
</clipPath>
</defs>
</svg>
