<svg viewBox="0 0 246 63" xmlns="http://www.w3.org/2000/svg" xmlns:xlink="http://www.w3.org/1999/xlink" width="246.000000" height="63.000000" fill="none">
	<rect id="SCHOOL" width="246.000000" height="63.000000" x="0.000000" y="0.000000" fill="rgb(255,255,255)" fill-opacity="0" />
	<path id="Vector" d="M9.32085 61.215C6.55674 60.023 4.40039 58.4107 2.85178 56.3666C1.29734 54.3282 0.350643 52.0883 0.00585938 49.6468L7.68459 47.0096L8.02938 47.0096C8.49104 49.8426 9.68317 52.0422 11.6116 53.5969C13.5401 55.1574 15.9945 55.9347 18.9865 55.9347C21.4584 55.9347 23.4453 55.3532 24.9413 54.19C26.4373 53.0269 27.1853 51.4837 27.1853 49.5547C27.1853 46.6065 25.1984 44.6257 21.2305 43.6008L12.6869 41.643C9.35007 40.8484 6.65024 39.6046 4.5757 37.9002C2.50116 36.1958 1.46681 33.5643 1.46681 29.9942C1.46681 27.6161 2.15637 25.4453 3.53551 23.4875C4.91464 21.5297 6.84309 19.9866 9.31501 18.8522C11.7869 17.7178 14.5803 17.1535 17.6833 17.1535C22.2824 17.1535 26.0984 18.2188 29.1138 20.3436C32.135 22.4683 34.0459 25.261 34.8524 28.7159L27.086 31.0134L26.7412 31.0134C26.338 28.7447 25.3153 26.977 23.679 25.6987C22.0428 24.4203 20.0384 23.7869 17.6833 23.7869C15.3283 23.7869 13.616 24.3397 12.2018 25.4453C10.7935 26.5509 10.0864 27.8695 10.0864 29.4011C10.0864 30.7601 10.5773 31.8541 11.5532 32.6718C12.5291 33.4952 13.9141 34.1344 15.6964 34.5835L23.3752 36.4549C27.4015 37.4165 30.4929 38.81 32.6492 40.618C34.8056 42.4319 35.8867 45.38 35.8867 49.4626C35.8867 52.0134 35.1679 54.3109 33.7303 56.3493C32.2928 58.3877 30.2942 60.0058 27.7346 61.1977C25.175 62.3896 22.2532 62.9827 18.9748 62.9827C15.2932 62.9827 12.0733 62.3896 9.30917 61.1977L9.32085 61.215Z" fill="rgb(0,0,0)" fill-rule="nonzero" />
	<path id="Vector" d="M51.4253 60.1094C48.0885 58.1862 45.4997 55.4741 43.6589 51.9904C41.8181 48.5067 40.9006 44.5221 40.9006 40.0422C40.9006 35.5624 41.8181 31.595 43.6589 28.1401C45.4997 24.6852 48.0885 21.9904 51.4253 20.0614C54.7621 18.1324 58.5898 17.1708 62.9025 17.1708C68.0217 17.1708 72.3519 18.4894 75.8874 21.1267C79.4229 23.7639 81.5675 27.3167 82.3156 31.7965L74.3797 33.2418L74.0349 33.2418C73.5148 30.6334 72.2525 28.5086 70.2364 26.8676C68.2203 25.2265 65.8069 24.4031 62.9902 24.4031C58.9638 24.4031 55.7146 25.8368 53.2369 28.6987C50.7649 31.5605 49.5261 35.3436 49.5261 40.048C49.5261 44.7524 50.7649 48.547 53.2369 51.4434C55.7088 54.334 58.9579 55.7793 62.9902 55.7793C65.9822 55.7793 68.4833 54.9443 70.4994 53.2687C72.5097 51.5988 73.807 49.2322 74.3797 46.1689L82.6603 47.7006C81.737 52.4626 79.5105 56.2054 75.975 58.9232C72.4395 61.6411 68.0801 63.0058 62.9025 63.0058C58.5898 63.0058 54.7621 62.0441 51.4253 60.1152L51.4253 60.1094Z" fill="rgb(0,0,0)" fill-rule="nonzero" />
	<path id="Vector" d="M89.6495 0L97.9302 0L97.9302 24.4837C99.4846 22.3301 101.466 20.5739 103.885 19.215C106.298 17.856 108.946 17.1766 111.821 17.1766C116.765 17.1766 120.797 18.5816 123.9 21.3858C127.009 24.19 128.557 27.9731 128.557 32.7351L128.557 62.1536L120.189 62.1536L120.189 34.6065C120.189 31.4338 119.295 28.9405 117.513 27.1267C115.73 25.3129 113.253 24.4088 110.091 24.4088C107.216 24.4088 104.656 25.4741 102.412 27.5988C100.168 29.7236 98.6723 32.3493 97.9243 35.4645L97.9243 62.1593L89.6437 62.1593L89.6437 0L89.6495 0Z" fill="rgb(0,0,0)" fill-rule="nonzero" />
	<path id="Vector" d="M146.515 60.023C143.12 58.0422 140.473 55.3071 138.58 51.8177C136.68 48.334 135.734 44.4069 135.734 40.0422C135.734 35.6775 136.68 31.8368 138.58 28.3532C140.479 24.8695 143.126 22.1344 146.515 20.1478C149.911 18.167 153.732 17.1708 157.993 17.1708C162.253 17.1708 166.004 18.1612 169.423 20.1478C172.848 22.1344 175.518 24.8637 177.447 28.3532C179.375 31.8368 180.339 35.7351 180.339 40.0422C180.339 44.3493 179.375 48.2591 177.447 51.7773C175.518 55.2898 172.842 58.0422 169.423 60.023C165.999 62.0096 162.188 63 157.993 63C153.797 63 149.911 62.0096 146.515 60.023ZM165.064 53.7351C167.132 52.3762 168.757 50.5048 169.937 48.1209C171.118 45.7428 171.708 43.048 171.708 40.0422C171.708 37.0365 171.118 34.3474 169.937 31.9635C168.757 29.5854 167.121 27.7255 165.017 26.3954C162.919 25.0653 160.576 24.3973 157.987 24.3973C155.398 24.3973 152.984 25.0653 150.91 26.3954C148.841 27.7255 147.228 29.5854 146.077 31.9635C144.926 34.3416 144.353 37.0365 144.353 40.0422C144.353 43.048 144.926 45.737 146.077 48.1209C147.228 50.499 148.835 52.3704 150.91 53.7351C152.979 55.094 155.34 55.7735 157.987 55.7735C160.634 55.7735 162.989 55.094 165.064 53.7351Z" fill="rgb(0,0,0)" fill-rule="nonzero" />
	<path id="Vector" d="M196.299 60.023C192.903 58.0422 190.256 55.3071 188.363 51.8177C186.464 48.334 185.517 44.4069 185.517 40.0422C185.517 35.6775 186.464 31.8368 188.363 28.3532C190.262 24.8695 192.909 22.1344 196.299 20.1478C199.694 18.167 203.516 17.1708 207.776 17.1708C212.036 17.1708 215.788 18.1612 219.206 20.1478C222.631 22.1344 225.301 24.8637 227.23 28.3532C229.158 31.8368 230.122 35.7351 230.122 40.0422C230.122 44.3493 229.158 48.2591 227.23 51.7773C225.301 55.2898 222.625 58.0422 219.206 60.023C215.782 62.0096 211.972 63 207.776 63C203.58 63 199.694 62.0096 196.299 60.023ZM214.853 53.7351C216.921 52.3762 218.546 50.5048 219.726 48.1209C220.907 45.7428 221.497 43.048 221.497 40.0422C221.497 37.0365 220.907 34.3474 219.726 31.9635C218.546 29.5854 216.91 27.7255 214.806 26.3954C212.708 25.0653 210.365 24.3973 207.776 24.3973C205.187 24.3973 202.774 25.0653 200.699 26.3954C198.63 27.7255 197.017 29.5854 195.866 31.9635C194.715 34.3416 194.142 37.0365 194.142 40.0422C194.142 43.048 194.715 45.737 195.866 48.1209C197.017 50.499 198.624 52.3704 200.699 53.7351C202.768 55.094 205.129 55.7735 207.776 55.7735C210.423 55.7735 212.778 55.094 214.853 53.7351Z" fill="rgb(0,0,0)" fill-rule="nonzero" />
	<path id="Vector" d="M237.719 62.1478L237.719 0L246 0L246 62.1478L237.719 62.1478Z" fill="rgb(0,0,0)" fill-rule="nonzero" />
</svg>
